<?xml version="1.0" encoding="utf-8"?>
<!-- Generator: Adobe Illustrator 21.1.0, SVG Export Plug-In . SVG Version: 6.00 Build 0)  -->
<svg version="1.1" xmlns="http://www.w3.org/2000/svg" xmlns:xlink="http://www.w3.org/1999/xlink" x="0px" y="0px"
	 viewBox="0 0 628.2 263" style="enable-background:new 0 0 628.2 263;" xml:space="preserve">
<style type="text/css">
	.st0{display:none;}
	.st1{display:inline;}
	.st2{fill:#0054A4;}
	.st3{fill:#00A657;}
	.st4{fill:none;stroke:#FFFFFF;stroke-width:2.062;stroke-miterlimit:10;}
</style>
<g id="Layer_2" class="st0">
	<g id="c5OucF_1_" class="st1">
		
			<image style="overflow:visible;" width="500" height="208" id="c5OucF_2_" xlink:href="E6D0F5D756F15F8D.jpg"  transform="matrix(1.2564 0 0 1.2564 0 0)">
		</image>
	</g>
</g>
<g id="Layer_1">
	<g>
		<path class="st2" d="M172.8,86.7l-131.6,0v23.4l97.8-0.1c34.1,0,34.1,17,34.1,17v21.4c0,0,0,19-34.3,19H7v-19l131.9,0V127
			l-98.1-0.1C7,126.9,7,110,7,110V86.7c0,0,0-17.5,33.8-17.5h131.9V86.7z"/>
		<path class="st2" d="M578.3,69.2v17.5l-132.9,0v61.6h132.9v19H445.2c-33.8,0-33.8-19-33.8-19V86.7c0,0-0.3-17.5,33.8-17.5H578.3z"
			/>
		<path class="st2" d="M341.6,148.3h-99.1V86.5h99.1v63.1V148.3z M208.4,69.2v98.1h133.4c33.9,0,33.9-19,33.9-19V86.7
			c0,0,0-17.5-34-17.5H208.4z"/>
		<path class="st3" d="M420,21.2l-7-1.1c0,0-77.8,50.5-114.9,87.5l-43.5-32.7c0,0,0,5.9-1.6,7.5c3.7,3.2,36.5,58,37.6,69.8
			c1.9,0,3.1-0.2,3.1-0.2s74.7-96.4,123.4-129.1L420,21.2z"/>
		<path class="st4" d="M420,21.2l-7-1.1c0,0-77.8,50.5-114.9,87.5l-43.5-32.7c0,0,0,5.9-1.6,7.5c3.7,3.2,36.5,58,37.6,69.8
			c1.9,0,3.1-0.2,3.1-0.2s74.7-96.4,123.4-129.1L420,21.2L420,21.2z"/>
		<path class="st3" d="M17.9,199.2c-0.9-1.5-2.1-2.3-3.9-2.3c-1.9,0-4,1.3-4,3.4c0,1.9,1.9,2.9,3.4,3.5l1.7,0.7c3.4,1.3,6,3.2,6,7.3
			c0,4.4-3.4,7.5-7.7,7.5c-3.9,0-7-2.9-7.5-6.8l3.1-0.6c0,2.7,2.1,4.6,4.7,4.6c2.6,0,4.5-2.2,4.5-4.7c0-2.6-2.1-3.7-4.2-4.6
			l-1.7-0.7c-2.8-1.2-5.3-2.8-5.3-6.1c0-3.9,3.5-6.3,7.1-6.3c2.7,0,4.9,1.3,6.2,3.7L17.9,199.2z"/>
		<polygon class="st3" points="36.8,218.8 34.7,218.8 34.7,203.8 30.7,203.8 30.7,201.8 40.9,201.8 40.9,203.8 36.8,203.8 		"/>
		<path class="st3" d="M54.8,205.8l-3,6.9h6L54.8,205.8z M51,214.5l-1.9,4.2h-2.3l8.1-17.7l8.1,17.7h-2.3l-1.9-4.2H51z"/>
		<polygon class="st3" points="74.9,218.8 72.8,218.8 72.8,203.8 68.8,203.8 68.8,201.8 78.9,201.8 78.9,203.8 74.9,203.8 		"/>
		<rect x="86.6" y="201.8" class="st3" width="2.1" height="16.9"/>
		<path class="st3" d="M105.4,205.1c-0.6-1.1-1.4-1.6-2.7-1.6c-1.3,0-2.8,0.9-2.8,2.4c0,1.3,1.3,2,2.4,2.4l1.2,0.5
			c2.4,0.9,4.2,2.3,4.2,5.1c0,3.1-2.4,5.3-5.4,5.3c-2.7,0-4.9-2-5.2-4.7l2.1-0.5c0,1.9,1.5,3.2,3.3,3.2c1.8,0,3.1-1.5,3.1-3.3
			c0-1.8-1.5-2.6-2.9-3.2l-1.2-0.5c-1.9-0.8-3.7-1.9-3.7-4.3c0-2.7,2.4-4.4,5-4.4c1.9,0,3.4,0.9,4.4,2.6L105.4,205.1z"/>
		<polygon class="st3" points="120.5,218.8 118.4,218.8 118.4,203.8 114.4,203.8 114.4,201.8 124.5,201.8 124.5,203.8 120.5,203.8 
					"/>
		<rect x="132.1" y="201.8" class="st3" width="2.1" height="16.9"/>
		<path class="st3" d="M155.7,205.1c-1.2-1.1-2.9-1.7-4.5-1.7c-3.8,0-6.7,3.2-6.7,6.9c0,3.7,2.9,6.9,6.7,6.9c1.7,0,3.3-0.6,4.5-1.8
			v2.5c-1.3,0.8-3,1.2-4.5,1.2c-4.8,0-8.8-3.8-8.8-8.7c0-5,4-8.9,9-8.9c1.5,0,3,0.4,4.3,1.1V205.1z"/>
		<path class="st3" d="M171.8,205.1c-0.6-1.1-1.4-1.6-2.7-1.6c-1.3,0-2.8,0.9-2.8,2.4c0,1.3,1.3,2,2.4,2.4l1.2,0.5
			c2.4,0.9,4.2,2.3,4.2,5.1c0,3.1-2.4,5.3-5.4,5.3c-2.7,0-4.9-2-5.2-4.7l2.1-0.5c0,1.9,1.5,3.2,3.3,3.2c1.8,0,3.1-1.5,3.1-3.3
			c0-1.8-1.5-2.6-2.9-3.2l-1.2-0.5c-1.9-0.8-3.7-1.9-3.7-4.3c0-2.7,2.4-4.4,5-4.4c1.9,0,3.4,0.9,4.4,2.6L171.8,205.1z"/>
		<path class="st3" d="M208.8,202.8c1.2-1,2.9-2,2.9-3.7c0-1.7-1.2-2.6-2.8-2.6c-1.4,0-2.7,1-2.7,2.6c0,1.2,0.7,2.1,1.4,3l0.8,1
			L208.8,202.8z M207.5,207c-1.7,1.2-4.4,2.8-4.4,5.1c0,2.3,2.2,4.5,4.5,4.5c2.2,0,4-1.7,5.6-3.2l-5.4-6.6L207.5,207z M215,215.5
			c-1.8,2.2-4.4,3.8-7.3,3.8c-4,0-7.4-3-7.4-7.1c0-3.1,1.9-4.8,4.2-6.4l1.5-1.1c-1.4-1.4-2.7-3.2-2.7-5.3c0-3.3,2.4-5.3,5.6-5.3
			c3,0,5.6,1.9,5.6,5c0,2.7-2.4,4.6-4.4,6l5,6.1l2.8-3.3l1.9,2l-3,3.5l4.3,5.4h-3.7L215,215.5z"/>
		<path class="st3" d="M252.3,216h1.1c6.2,0,11.5-2.3,11.5-9.4c0-7.1-5.3-9.3-11.5-9.3h-1.1V216z M249.3,194.6h5
			c7.4,0,13.6,3.9,13.6,12c0,8.3-6,12.2-13.7,12.2h-4.9V194.6z"/>
		<path class="st3" d="M285.1,205.8l-3,6.9h6L285.1,205.8z M281.2,214.5l-1.9,4.2H277l8.1-17.7l8.1,17.7H291l-1.9-4.2H281.2z"/>
		<polygon class="st3" points="305.2,218.8 303.1,218.8 303.1,203.8 299.1,203.8 299.1,201.8 309.2,201.8 309.2,203.8 305.2,203.8 
					"/>
		<path class="st3" d="M323.2,205.8l-3,6.9h6L323.2,205.8z M319.3,214.5l-1.9,4.2h-2.3l8.1-17.7l8.1,17.7H329l-1.9-4.2H319.3z"/>
		<path class="st3" d="M374.9,199.2c-1.7-1.5-4.1-2.4-6.4-2.4c-5.4,0-9.6,4.5-9.6,9.9c0,5.3,4.1,9.8,9.5,9.8c2.4,0,4.7-0.9,6.5-2.5
			v3.6c-1.9,1.1-4.2,1.7-6.4,1.7c-6.9,0-12.6-5.5-12.6-12.5c0-7.2,5.8-12.8,12.9-12.8c2.1,0,4.3,0.5,6.1,1.6V199.2z"/>
		<path class="st3" d="M400.9,210.3c0-3.7-2.8-6.9-6.8-6.9c-4,0-6.8,3.1-6.8,6.9c0,3.9,3.1,6.9,6.8,6.9S400.9,214.2,400.9,210.3
			 M403,210.3c0,5-4,8.8-8.9,8.8c-4.9,0-8.9-3.8-8.9-8.8c0-4.9,4-8.8,8.9-8.8C398.9,201.5,403,205.5,403,210.3"/>
		<path class="st3" d="M413.1,209.9h0.7c2.2,0,4.5-0.4,4.5-3.1c0-2.7-2.5-3-4.6-3h-0.6V209.9z M421.6,218.8H419l-5-7.2h-0.9v7.2H411
			v-16.9h2.6c1.5,0,3.1,0,4.5,0.8c1.4,0.8,2.2,2.4,2.2,4c0,2.4-1.6,4.5-4.1,4.7L421.6,218.8z"/>
		<path class="st3" d="M431.4,209.8h0.7c2.2,0,4.5-0.4,4.5-3.1c0-2.7-2.5-3-4.6-3h-0.6V209.8z M431.4,218.8h-2.1v-16.9h2.4
			c5.2,0,6.8,1.8,6.8,4.9c0,3.6-2.7,4.9-5.9,4.9h-1.2V218.8z"/>
		<path class="st3" d="M460.8,210.3c0-3.7-2.8-6.9-6.8-6.9c-4,0-6.8,3.1-6.8,6.9c0,3.9,3.1,6.9,6.8,6.9
			C457.7,217.2,460.8,214.2,460.8,210.3 M462.9,210.3c0,5-4,8.8-8.9,8.8c-4.9,0-8.9-3.8-8.9-8.8c0-4.9,4-8.8,8.9-8.8
			C458.9,201.5,462.9,205.5,462.9,210.3"/>
		<path class="st3" d="M473.1,209.9h0.7c2.2,0,4.5-0.4,4.5-3.1c0-2.7-2.5-3-4.6-3h-0.6V209.9z M481.5,218.8H479l-5-7.2h-0.9v7.2H471
			v-16.9h2.6c1.5,0,3.1,0,4.5,0.8c1.4,0.8,2.2,2.4,2.2,4c0,2.4-1.6,4.5-4.1,4.7L481.5,218.8z"/>
		<path class="st3" d="M495.5,205.8l-3,6.9h6L495.5,205.8z M491.6,214.5l-1.9,4.2h-2.3l8.1-17.7l8.1,17.7h-2.3l-1.9-4.2H491.6z"/>
		<polygon class="st3" points="515.6,218.8 513.5,218.8 513.5,203.8 509.5,203.8 509.5,201.8 519.6,201.8 519.6,203.8 515.6,203.8 
					"/>
		<rect x="527.2" y="201.8" class="st3" width="2.1" height="16.9"/>
		<path class="st3" d="M553,210.3c0-3.7-2.8-6.9-6.8-6.9c-4,0-6.8,3.1-6.8,6.9c0,3.9,3.1,6.9,6.8,6.9
			C549.9,217.2,553,214.2,553,210.3 M555.1,210.3c0,5-4,8.8-8.9,8.8c-4.9,0-8.9-3.8-8.9-8.8c0-4.9,4-8.8,8.9-8.8
			C551.1,201.5,555.1,205.5,555.1,210.3"/>
		<polygon class="st3" points="562.9,201 575.7,214.4 575.7,201.8 577.8,201.8 577.8,219.5 565.1,206.2 565.1,218.8 562.9,218.8 		
			"/>
	</g>
</g>
</svg>
